<mxfile host="65bd71144e">
    <diagram id="gYO-CGuo0iX86Wi-elRt" name="activate()">
        <mxGraphModel dx="874" dy="475" grid="1" gridSize="10" guides="1" tooltips="1" connect="1" arrows="1" fold="1" page="1" pageScale="1" pageWidth="1600" pageHeight="900" background="#1A1A1A" math="0" shadow="0">
            <root>
                <mxCell id="0"/>
                <mxCell id="1" parent="0"/>
                <mxCell id="4" style="edgeStyle=elbowEdgeStyle;html=1;entryX=0;entryY=0.5;entryDx=0;entryDy=0;strokeColor=#999999;strokeWidth=2;" parent="1" source="2" target="3" edge="1">
                    <mxGeometry relative="1" as="geometry">
                        <Array as="points">
                            <mxPoint x="120" y="230"/>
                        </Array>
                    </mxGeometry>
                </mxCell>
                <mxCell id="13" style="edgeStyle=elbowEdgeStyle;shape=connector;rounded=1;elbow=vertical;html=1;entryX=0;entryY=0.5;entryDx=0;entryDy=0;strokeColor=#999999;strokeWidth=2;align=center;verticalAlign=middle;fontFamily=Helvetica;fontSize=11;fontColor=default;labelBackgroundColor=default;endArrow=classic;" parent="1" source="2" target="5" edge="1">
                    <mxGeometry relative="1" as="geometry">
                        <Array as="points">
                            <mxPoint x="120" y="340"/>
                        </Array>
                    </mxGeometry>
                </mxCell>
                <mxCell id="16" style="edgeStyle=elbowEdgeStyle;shape=connector;rounded=1;elbow=vertical;html=1;entryX=0;entryY=0.5;entryDx=0;entryDy=0;strokeColor=#999999;strokeWidth=2;align=center;verticalAlign=middle;fontFamily=Helvetica;fontSize=11;fontColor=default;labelBackgroundColor=default;endArrow=classic;" parent="1" source="2" target="14" edge="1">
                    <mxGeometry relative="1" as="geometry">
                        <Array as="points">
                            <mxPoint x="120" y="420"/>
                        </Array>
                    </mxGeometry>
                </mxCell>
                <mxCell id="23" style="edgeStyle=elbowEdgeStyle;shape=connector;rounded=1;html=1;entryX=0;entryY=0.5;entryDx=0;entryDy=0;strokeColor=#999999;strokeWidth=2;align=center;verticalAlign=middle;fontFamily=Helvetica;fontSize=11;fontColor=default;labelBackgroundColor=default;endArrow=classic;" parent="1" source="2" target="22" edge="1">
                    <mxGeometry relative="1" as="geometry">
                        <Array as="points">
                            <mxPoint x="120" y="380"/>
                        </Array>
                    </mxGeometry>
                </mxCell>
                <mxCell id="27" style="edgeStyle=elbowEdgeStyle;html=1;entryX=0;entryY=0.5;entryDx=0;entryDy=0;rounded=1;strokeColor=#999999;strokeWidth=2;align=center;verticalAlign=middle;fontFamily=Helvetica;fontSize=11;fontColor=default;labelBackgroundColor=default;endArrow=classic;" edge="1" parent="1" source="2" target="25">
                    <mxGeometry relative="1" as="geometry">
                        <Array as="points">
                            <mxPoint x="120" y="370"/>
                        </Array>
                    </mxGeometry>
                </mxCell>
                <mxCell id="30" style="edgeStyle=elbowEdgeStyle;shape=connector;rounded=1;html=1;entryX=0;entryY=0.5;entryDx=0;entryDy=0;strokeColor=#999999;strokeWidth=2;align=center;verticalAlign=middle;fontFamily=Helvetica;fontSize=11;fontColor=default;labelBackgroundColor=default;endArrow=classic;" edge="1" parent="1" source="2" target="29">
                    <mxGeometry relative="1" as="geometry">
                        <Array as="points">
                            <mxPoint x="120" y="420"/>
                        </Array>
                    </mxGeometry>
                </mxCell>
                <mxCell id="2" value="&lt;b&gt;activate()&lt;/b&gt;" style="rounded=0;whiteSpace=wrap;html=1;fillColor=#e3c800;strokeColor=#B09500;fontColor=#000000;" parent="1" vertex="1">
                    <mxGeometry x="80" y="160" width="80" height="40" as="geometry"/>
                </mxCell>
                <mxCell id="8" style="edgeStyle=elbowEdgeStyle;shape=connector;rounded=1;elbow=vertical;html=1;entryX=0;entryY=0.5;entryDx=0;entryDy=0;strokeColor=#999999;strokeWidth=2;align=center;verticalAlign=middle;fontFamily=Helvetica;fontSize=11;fontColor=default;labelBackgroundColor=default;endArrow=classic;" parent="1" source="3" target="6" edge="1">
                    <mxGeometry relative="1" as="geometry"/>
                </mxCell>
                <mxCell id="3" value="&lt;b&gt;1. Crea el comando &quot;&lt;i&gt;editCommand&lt;/i&gt;&quot; y luego lo suscribe al contexto actual.&lt;/b&gt;" style="rounded=0;whiteSpace=wrap;html=1;fillColor=default;strokeColor=#B09500;fontColor=#000000;align=left;shadow=0;" parent="1" vertex="1">
                    <mxGeometry x="200" y="240" width="240" height="40" as="geometry"/>
                </mxCell>
                <mxCell id="19" style="edgeStyle=elbowEdgeStyle;shape=connector;rounded=1;html=1;entryX=0;entryY=0.5;entryDx=0;entryDy=0;strokeColor=#999999;strokeWidth=2;align=center;verticalAlign=middle;fontFamily=Helvetica;fontSize=11;fontColor=default;labelBackgroundColor=default;endArrow=classic;" parent="1" source="5" target="9" edge="1">
                    <mxGeometry relative="1" as="geometry"/>
                </mxCell>
                <mxCell id="5" value="&lt;b&gt;2. Funcionalidad para ejecutar código cuando cambian los editores visibles por abrirse o cerrarse algún otro editor&lt;/b&gt;" style="rounded=0;whiteSpace=wrap;html=1;fillColor=default;strokeColor=#B09500;fontColor=#000000;align=left;shadow=0;" parent="1" vertex="1">
                    <mxGeometry x="200" y="315" width="240" height="50" as="geometry"/>
                </mxCell>
                <UserObject label="&lt;b&gt;handleEditCommand()&lt;/b&gt;" link="data:page/id,-Tw2KawIsugcxCDWvNFc" id="6">
                    <mxCell style="rounded=0;whiteSpace=wrap;html=1;fillColor=#e3c800;strokeColor=#B09500;fontColor=#000000;" parent="1" vertex="1">
                        <mxGeometry x="520" y="240" width="160" height="40" as="geometry"/>
                    </mxCell>
                </UserObject>
                <mxCell id="9" value="&lt;b&gt;handleActiveDocument()&lt;/b&gt;" style="rounded=0;whiteSpace=wrap;html=1;fillColor=#e3c800;strokeColor=#B09500;fontColor=#000000;" parent="1" vertex="1">
                    <mxGeometry x="520" y="440" width="160" height="40" as="geometry"/>
                </mxCell>
                <mxCell id="15" style="edgeStyle=elbowEdgeStyle;shape=connector;rounded=1;html=1;entryX=0;entryY=0.5;entryDx=0;entryDy=0;strokeColor=#999999;strokeWidth=2;align=center;verticalAlign=middle;fontFamily=Helvetica;fontSize=11;fontColor=default;labelBackgroundColor=default;endArrow=classic;" parent="1" source="14" target="9" edge="1">
                    <mxGeometry relative="1" as="geometry"/>
                </mxCell>
                <mxCell id="14" value="&lt;b&gt;3. Listener para ejecutar código cuando se cambia de editor activo actual&lt;/b&gt;" style="rounded=0;whiteSpace=wrap;html=1;fillColor=default;strokeColor=#B09500;fontColor=#000000;align=left;shadow=0;" parent="1" vertex="1">
                    <mxGeometry x="200" y="400" width="240" height="40" as="geometry"/>
                </mxCell>
                <mxCell id="24" style="edgeStyle=elbowEdgeStyle;shape=connector;rounded=1;html=1;entryX=0;entryY=0.5;entryDx=0;entryDy=0;strokeColor=#999999;strokeWidth=2;align=center;verticalAlign=middle;fontFamily=Helvetica;fontSize=11;fontColor=default;labelBackgroundColor=default;endArrow=classic;" parent="1" source="22" target="9" edge="1">
                    <mxGeometry relative="1" as="geometry"/>
                </mxCell>
                <mxCell id="22" value="&lt;b&gt;4&lt;/b&gt;&lt;b style=&quot;background-color: transparent;&quot;&gt;. Listener para ejecutar código cuando se modifica un documento&lt;/b&gt;" style="rounded=0;whiteSpace=wrap;html=1;fillColor=default;strokeColor=#B09500;fontColor=#000000;align=left;shadow=0;" parent="1" vertex="1">
                    <mxGeometry x="200" y="470" width="240" height="40" as="geometry"/>
                </mxCell>
                <mxCell id="28" style="edgeStyle=elbowEdgeStyle;html=1;entryX=0;entryY=0.5;entryDx=0;entryDy=0;rounded=1;strokeColor=#999999;strokeWidth=2;align=center;verticalAlign=middle;fontFamily=Helvetica;fontSize=11;fontColor=default;labelBackgroundColor=default;endArrow=classic;" edge="1" parent="1" source="25" target="9">
                    <mxGeometry relative="1" as="geometry"/>
                </mxCell>
                <mxCell id="25" value="&lt;b&gt;5&lt;/b&gt;&lt;b style=&quot;background-color: transparent;&quot;&gt;. Se recorren todos los editores y se les aplican los decoradores (ejecución única al abrir la extensión)&lt;/b&gt;" style="rounded=0;whiteSpace=wrap;html=1;fillColor=default;strokeColor=#B09500;fontColor=#000000;align=left;shadow=0;" vertex="1" parent="1">
                    <mxGeometry x="200" y="540" width="240" height="50" as="geometry"/>
                </mxCell>
                <mxCell id="33" style="edgeStyle=elbowEdgeStyle;shape=connector;rounded=1;html=1;strokeColor=#999999;strokeWidth=2;align=center;verticalAlign=middle;fontFamily=Helvetica;fontSize=11;fontColor=default;labelBackgroundColor=default;endArrow=classic;" edge="1" parent="1" source="29" target="32">
                    <mxGeometry relative="1" as="geometry"/>
                </mxCell>
                <mxCell id="29" value="&lt;b&gt;6&lt;/b&gt;&lt;b style=&quot;background-color: transparent;&quot;&gt;. Listener que elimina los decoradores y sus eventos asociados cuando se cierra un documento.&lt;/b&gt;" style="rounded=0;whiteSpace=wrap;html=1;fillColor=default;strokeColor=#B09500;fontColor=#000000;align=left;shadow=0;" vertex="1" parent="1">
                    <mxGeometry x="200" y="620" width="240" height="60" as="geometry"/>
                </mxCell>
                <mxCell id="32" value="&lt;b&gt;handleOnDidCloseTextDocument()&lt;/b&gt;" style="rounded=0;whiteSpace=wrap;html=1;fillColor=#e3c800;strokeColor=#B09500;fontColor=#000000;" vertex="1" parent="1">
                    <mxGeometry x="520" y="630" width="240" height="40" as="geometry"/>
                </mxCell>
                <mxCell id="bf8iS1HbPQS-Yaw-5rfS-33" value="&lt;font style=&quot;font-size: 12px;&quot;&gt;&lt;b&gt;Este método es el primero que ejecuta el motor de vscode al iniciar la extensión. El objetivo de este método es configurar todos los comandos y listeners que sean necesarios para permitir la ejecución de toda la lógica necesaria para el funcionamiento de la extensión.&amp;nbsp;&lt;/b&gt;&lt;/font&gt;" style="rounded=0;whiteSpace=wrap;html=1;fontFamily=Helvetica;fontSize=11;labelBackgroundColor=none;fillColor=#dae8fc;strokeColor=#6c8ebf;align=left;" vertex="1" parent="1">
                    <mxGeometry x="200" y="140" width="560" height="60" as="geometry"/>
                </mxCell>
            </root>
        </mxGraphModel>
    </diagram>
    <diagram name="handleEditCommand()" id="-Tw2KawIsugcxCDWvNFc">
        <mxGraphModel dx="874" dy="475" grid="1" gridSize="10" guides="1" tooltips="1" connect="1" arrows="1" fold="1" page="1" pageScale="1" pageWidth="1600" pageHeight="900" background="#1A1A1A" math="0" shadow="0">
            <root>
                <mxCell id="NNBtcboegjRNttXCQF-n-0"/>
                <mxCell id="NNBtcboegjRNttXCQF-n-1" parent="NNBtcboegjRNttXCQF-n-0"/>
                <mxCell id="NNBtcboegjRNttXCQF-n-2" style="edgeStyle=elbowEdgeStyle;html=1;entryX=0;entryY=0.5;entryDx=0;entryDy=0;strokeColor=#999999;strokeWidth=2;" edge="1" parent="NNBtcboegjRNttXCQF-n-1" source="NNBtcboegjRNttXCQF-n-8" target="NNBtcboegjRNttXCQF-n-10">
                    <mxGeometry relative="1" as="geometry">
                        <Array as="points">
                            <mxPoint x="120" y="230"/>
                        </Array>
                    </mxGeometry>
                </mxCell>
                <mxCell id="_mTsUSQz6DU6gI6pGclf-9" style="edgeStyle=elbowEdgeStyle;shape=connector;rounded=1;html=1;entryX=0;entryY=0.5;entryDx=0;entryDy=0;strokeColor=#999999;strokeWidth=2;align=center;verticalAlign=middle;fontFamily=Helvetica;fontSize=11;fontColor=default;labelBackgroundColor=default;endArrow=classic;" edge="1" parent="NNBtcboegjRNttXCQF-n-1" source="NNBtcboegjRNttXCQF-n-8" target="_mTsUSQz6DU6gI6pGclf-8">
                    <mxGeometry relative="1" as="geometry">
                        <Array as="points">
                            <mxPoint x="120" y="380"/>
                        </Array>
                    </mxGeometry>
                </mxCell>
                <mxCell id="NNBtcboegjRNttXCQF-n-8" value="&lt;b&gt;handleEditCommand&lt;/b&gt;&lt;b style=&quot;background-color: transparent;&quot;&gt;()&lt;/b&gt;" style="rounded=0;whiteSpace=wrap;html=1;fillColor=#e3c800;strokeColor=#B09500;fontColor=#000000;" vertex="1" parent="NNBtcboegjRNttXCQF-n-1">
                    <mxGeometry x="40" y="100" width="160" height="40" as="geometry"/>
                </mxCell>
                <mxCell id="_mTsUSQz6DU6gI6pGclf-2" style="edgeStyle=elbowEdgeStyle;shape=connector;rounded=1;html=1;strokeColor=#999999;strokeWidth=2;align=center;verticalAlign=middle;fontFamily=Helvetica;fontSize=11;fontColor=default;labelBackgroundColor=default;endArrow=classic;" edge="1" parent="NNBtcboegjRNttXCQF-n-1" source="NNBtcboegjRNttXCQF-n-10" target="_mTsUSQz6DU6gI6pGclf-0">
                    <mxGeometry relative="1" as="geometry"/>
                </mxCell>
                <mxCell id="NNBtcboegjRNttXCQF-n-10" value="&lt;b&gt;1. Intenta establecer la configuración por defecto si el usuario nunca realizo cambios previamente&lt;/b&gt;" style="rounded=0;whiteSpace=wrap;html=1;fillColor=default;strokeColor=#B09500;fontColor=#000000;align=left;shadow=0;" vertex="1" parent="NNBtcboegjRNttXCQF-n-1">
                    <mxGeometry x="200" y="240" width="240" height="60" as="geometry"/>
                </mxCell>
                <mxCell id="NNBtcboegjRNttXCQF-n-13" value="&lt;b&gt;handleEditCommand()&lt;/b&gt;" style="rounded=0;whiteSpace=wrap;html=1;fillColor=#e3c800;strokeColor=#B09500;fontColor=#000000;" vertex="1" parent="NNBtcboegjRNttXCQF-n-1">
                    <mxGeometry x="700" y="250" width="160" height="40" as="geometry"/>
                </mxCell>
                <mxCell id="_mTsUSQz6DU6gI6pGclf-3" style="edgeStyle=elbowEdgeStyle;shape=connector;rounded=1;html=1;strokeColor=#999999;strokeWidth=2;align=center;verticalAlign=middle;fontFamily=Helvetica;fontSize=11;fontColor=default;labelBackgroundColor=default;endArrow=classic;" edge="1" parent="NNBtcboegjRNttXCQF-n-1" source="_mTsUSQz6DU6gI6pGclf-0" target="NNBtcboegjRNttXCQF-n-13">
                    <mxGeometry relative="1" as="geometry"/>
                </mxCell>
                <mxCell id="_mTsUSQz6DU6gI6pGclf-0" value="&lt;font style=&quot;font-size: 12px;&quot;&gt;&lt;b&gt;hasUserDefinedTags()&lt;/b&gt;&lt;/font&gt;" style="rhombus;whiteSpace=wrap;html=1;fontFamily=Helvetica;fontSize=11;fontColor=#000000;labelBackgroundColor=none;fillColor=#e3c800;strokeColor=#B09500;" vertex="1" parent="NNBtcboegjRNttXCQF-n-1">
                    <mxGeometry x="490" y="200" width="150" height="140" as="geometry"/>
                </mxCell>
                <mxCell id="_mTsUSQz6DU6gI6pGclf-6" value="&lt;span&gt;&lt;font style=&quot;color: rgb(204, 204, 204);&quot;&gt;TRUE&lt;/font&gt;&lt;/span&gt;" style="text;html=1;align=center;verticalAlign=middle;whiteSpace=wrap;rounded=0;fontFamily=Helvetica;fontSize=11;fontColor=default;labelBackgroundColor=none;" vertex="1" parent="NNBtcboegjRNttXCQF-n-1">
                    <mxGeometry x="630" y="240" width="60" height="30" as="geometry"/>
                </mxCell>
                <mxCell id="_mTsUSQz6DU6gI6pGclf-7" value="&lt;b&gt;handleEditCommand()&lt;/b&gt;" style="rounded=0;whiteSpace=wrap;html=1;fillColor=#e3c800;strokeColor=#B09500;fontColor=#000000;" vertex="1" parent="NNBtcboegjRNttXCQF-n-1">
                    <mxGeometry x="480" y="400" width="160" height="40" as="geometry"/>
                </mxCell>
                <mxCell id="_mTsUSQz6DU6gI6pGclf-10" style="edgeStyle=elbowEdgeStyle;shape=connector;rounded=1;html=1;strokeColor=#999999;strokeWidth=2;align=center;verticalAlign=middle;fontFamily=Helvetica;fontSize=11;fontColor=default;labelBackgroundColor=default;endArrow=classic;" edge="1" parent="NNBtcboegjRNttXCQF-n-1" source="_mTsUSQz6DU6gI6pGclf-8" target="_mTsUSQz6DU6gI6pGclf-7">
                    <mxGeometry relative="1" as="geometry"/>
                </mxCell>
                <mxCell id="_mTsUSQz6DU6gI6pGclf-8" value="&lt;b&gt;2. Abre settings.json para que el usuario cree, elimine o modifique los estilos de la extensión&lt;/b&gt;" style="rounded=0;whiteSpace=wrap;html=1;fillColor=default;strokeColor=#B09500;fontColor=#000000;align=left;shadow=0;" vertex="1" parent="NNBtcboegjRNttXCQF-n-1">
                    <mxGeometry x="200" y="390" width="240" height="60" as="geometry"/>
                </mxCell>
                <mxCell id="654UdnumtpIfwxWP_nh8-0" value="&lt;font style=&quot;font-size: 12px;&quot;&gt;&lt;b&gt;Este método se ejecuta cuando el usuaro hace click en el botón edit, su función principal es abrir el archivo de configuración settings.json para que el usuario pueda crear, eliminar o modificar las etiquetas, ya sea alterando sus colores, comportamiento o hasta el nombre de la etiqueta.&lt;/b&gt;&lt;/font&gt;" style="rounded=0;whiteSpace=wrap;html=1;fontFamily=Helvetica;fontSize=11;labelBackgroundColor=none;fillColor=#dae8fc;strokeColor=#6c8ebf;align=left;" vertex="1" parent="NNBtcboegjRNttXCQF-n-1">
                    <mxGeometry x="240" y="100" width="560" height="60" as="geometry"/>
                </mxCell>
            </root>
        </mxGraphModel>
    </diagram>
</mxfile>